<svg width="264" height="64" viewBox="0 0 264 64" fill="none" xmlns="http://www.w3.org/2000/svg">
<g filter="url(#filter0_d_128_3370)">
<rect x="4.06836" width="255" height="56" rx="10" fill="#29ABE2" shape-rendering="crispEdges"/>
<path d="M24.0282 35.5H20.568L25.8404 20.2273H30.0016L35.2665 35.5H31.8063L27.9806 23.7173H27.8613L24.0282 35.5ZM23.812 29.4968H31.9853V32.0174H23.812V29.4968ZM40.7328 35.6864C39.8627 35.6864 39.0748 35.4627 38.3688 35.0153C37.6678 34.5629 37.111 33.8991 36.6983 33.0241C36.2907 32.1442 36.0868 31.0653 36.0868 29.7876C36.0868 28.4751 36.2981 27.3839 36.7207 26.5138C37.1433 25.6388 37.7051 24.9851 38.4061 24.5526C39.112 24.1151 39.8851 23.8963 40.7253 23.8963C41.3667 23.8963 41.9011 24.0057 42.3287 24.2244C42.7612 24.4382 43.1092 24.7067 43.3727 25.0298C43.6412 25.348 43.845 25.6612 43.9842 25.9695H44.0811V20.2273H47.2505V35.5H44.1184V33.6655H43.9842C43.835 33.9837 43.6238 34.2994 43.3503 34.6126C43.0819 34.9208 42.7314 35.1768 42.2988 35.3807C41.8713 35.5845 41.3493 35.6864 40.7328 35.6864ZM41.7395 33.1584C42.2516 33.1584 42.6841 33.0192 43.0371 32.7408C43.3951 32.4574 43.6685 32.0621 43.8574 31.555C44.0513 31.0479 44.1483 30.4538 44.1483 29.7727C44.1483 29.0916 44.0538 28.5 43.8649 27.9979C43.676 27.4957 43.4025 27.108 43.0446 26.8345C42.6866 26.5611 42.2516 26.4244 41.7395 26.4244C41.2175 26.4244 40.7775 26.5661 40.4196 26.8494C40.0616 27.1328 39.7907 27.5256 39.6067 28.0277C39.4228 28.5298 39.3308 29.1115 39.3308 29.7727C39.3308 30.4389 39.4228 31.0281 39.6067 31.5401C39.7956 32.0472 40.0666 32.445 40.4196 32.7333C40.7775 33.0167 41.2175 33.1584 41.7395 33.1584ZM54.0834 35.6864C53.2133 35.6864 52.4253 35.4627 51.7194 35.0153C51.0184 34.5629 50.4616 33.8991 50.0489 33.0241C49.6412 32.1442 49.4374 31.0653 49.4374 29.7876C49.4374 28.4751 49.6487 27.3839 50.0713 26.5138C50.4939 25.6388 51.0557 24.9851 51.7567 24.5526C52.4626 24.1151 53.2357 23.8963 54.0759 23.8963C54.7172 23.8963 55.2517 24.0057 55.6792 24.2244C56.1118 24.4382 56.4598 24.7067 56.7233 25.0298C56.9917 25.348 57.1956 25.6612 57.3348 25.9695H57.4317V20.2273H60.6011V35.5H57.469V33.6655H57.3348C57.1856 33.9837 56.9743 34.2994 56.7009 34.6126C56.4324 34.9208 56.0819 35.1768 55.6494 35.3807C55.2219 35.5845 54.6998 35.6864 54.0834 35.6864ZM55.0901 33.1584C55.6022 33.1584 56.0347 33.0192 56.3877 32.7408C56.7456 32.4574 57.0191 32.0621 57.208 31.555C57.4019 31.0479 57.4988 30.4538 57.4988 29.7727C57.4988 29.0916 57.4044 28.5 57.2155 27.9979C57.0265 27.4957 56.7531 27.108 56.3952 26.8345C56.0372 26.5611 55.6022 26.4244 55.0901 26.4244C54.5681 26.4244 54.1281 26.5661 53.7702 26.8494C53.4122 27.1328 53.1412 27.5256 52.9573 28.0277C52.7733 28.5298 52.6814 29.1115 52.6814 29.7727C52.6814 30.4389 52.7733 31.0281 52.9573 31.5401C53.1462 32.0472 53.4172 32.445 53.7702 32.7333C54.1281 33.0167 54.5681 33.1584 55.0901 33.1584ZM71.2503 28.8778V35.5H68.0734V24.0455H71.1011V26.0664H71.2354C71.4889 25.4002 71.914 24.8732 72.5106 24.4854C73.1072 24.0927 73.8305 23.8963 74.6807 23.8963C75.4761 23.8963 76.1697 24.0703 76.7613 24.4183C77.3529 24.7663 77.8128 25.2635 78.1409 25.9098C78.469 26.5511 78.6331 27.3168 78.6331 28.2067V35.5H75.4562V28.7734C75.4612 28.0724 75.2822 27.5256 74.9193 27.1328C74.5564 26.7351 74.0567 26.5362 73.4204 26.5362C72.9928 26.5362 72.615 26.6282 72.2868 26.8121C71.9637 26.9961 71.7101 27.2646 71.5262 27.6175C71.3472 27.9656 71.2552 28.3857 71.2503 28.8778ZM86.3571 35.7237C85.1788 35.7237 84.1646 35.4851 83.3145 35.0078C82.4693 34.5256 81.818 33.8445 81.3606 32.9645C80.9032 32.0795 80.6745 31.033 80.6745 29.8249C80.6745 28.6467 80.9032 27.6126 81.3606 26.7227C81.818 25.8327 82.4618 25.1392 83.2921 24.642C84.1273 24.1449 85.1067 23.8963 86.2303 23.8963C86.986 23.8963 87.6895 24.0181 88.3407 24.2617C88.997 24.5004 89.5687 24.8608 90.0559 25.343C90.5481 25.8253 90.9309 26.4318 91.2044 27.1626C91.4778 27.8885 91.6145 28.7386 91.6145 29.7131V30.5856H81.9423V28.6168H88.6241C88.6241 28.1594 88.5247 27.7543 88.3258 27.4013C88.127 27.0483 87.851 26.7724 87.498 26.5735C87.15 26.3697 86.7449 26.2678 86.2825 26.2678C85.8002 26.2678 85.3727 26.3796 84.9998 26.6033C84.6319 26.8221 84.3436 27.1179 84.1348 27.4908C83.926 27.8587 83.8191 28.2688 83.8141 28.7212V30.593C83.8141 31.1598 83.9185 31.6495 84.1273 32.0621C84.3411 32.4748 84.6419 32.793 85.0297 33.0167C85.4174 33.2404 85.8773 33.3523 86.4093 33.3523C86.7623 33.3523 87.0854 33.3026 87.3787 33.2031C87.6721 33.1037 87.9231 32.9545 88.1319 32.7557C88.3407 32.5568 88.4998 32.3132 88.6092 32.0249L91.5474 32.2188C91.3983 32.9247 91.0925 33.5412 90.6301 34.0682C90.1728 34.5902 89.5811 34.9979 88.8553 35.2912C88.1344 35.5795 87.3017 35.7237 86.3571 35.7237ZM95.8652 35.5L92.748 24.0455H95.9622L97.737 31.7415H97.8414L99.6909 24.0455H102.845L104.725 31.6967H104.822L106.567 24.0455H109.773L106.664 35.5H103.3L101.331 28.2962H101.19L99.2211 35.5H95.8652ZM121.504 35.7237C120.33 35.7237 119.321 35.4751 118.476 34.978C117.636 34.4759 116.99 33.7798 116.537 32.8899C116.09 32 115.866 30.9759 115.866 29.8175C115.866 28.6442 116.092 27.6151 116.545 26.7301C117.002 25.8402 117.651 25.1467 118.491 24.6495C119.331 24.1474 120.33 23.8963 121.489 23.8963C122.488 23.8963 123.363 24.0778 124.114 24.4407C124.865 24.8036 125.459 25.3132 125.896 25.9695C126.334 26.6257 126.575 27.3963 126.619 28.2812H123.622C123.537 27.7095 123.313 27.2496 122.95 26.9016C122.593 26.5487 122.123 26.3722 121.541 26.3722C121.049 26.3722 120.619 26.5064 120.251 26.7749C119.888 27.0384 119.605 27.4237 119.401 27.9308C119.197 28.4379 119.095 29.0518 119.095 29.7727C119.095 30.5036 119.194 31.125 119.393 31.6371C119.597 32.1491 119.883 32.5394 120.251 32.8079C120.619 33.0763 121.049 33.2106 121.541 33.2106C121.904 33.2106 122.23 33.136 122.518 32.9869C122.811 32.8377 123.052 32.6214 123.241 32.3381C123.435 32.0497 123.562 31.7042 123.622 31.3015H126.619C126.57 32.1765 126.331 32.9471 125.904 33.6133C125.481 34.2745 124.897 34.7915 124.151 35.1644C123.405 35.5373 122.523 35.7237 121.504 35.7237ZM133.829 35.7237C132.671 35.7237 131.669 35.4776 130.824 34.9854C129.983 34.4883 129.335 33.7972 128.877 32.9123C128.42 32.0224 128.191 30.9908 128.191 29.8175C128.191 28.6342 128.42 27.6001 128.877 26.7152C129.335 25.8253 129.983 25.1342 130.824 24.642C131.669 24.1449 132.671 23.8963 133.829 23.8963C134.987 23.8963 135.987 24.1449 136.827 24.642C137.672 25.1342 138.323 25.8253 138.781 26.7152C139.238 27.6001 139.467 28.6342 139.467 29.8175C139.467 30.9908 139.238 32.0224 138.781 32.9123C138.323 33.7972 137.672 34.4883 136.827 34.9854C135.987 35.4776 134.987 35.7237 133.829 35.7237ZM133.844 33.2628C134.371 33.2628 134.811 33.1136 135.164 32.8153C135.517 32.5121 135.783 32.0994 135.962 31.5774C136.146 31.0554 136.238 30.4613 136.238 29.7951C136.238 29.1289 136.146 28.5348 135.962 28.0128C135.783 27.4908 135.517 27.0781 135.164 26.7749C134.811 26.4716 134.371 26.32 133.844 26.32C133.312 26.32 132.864 26.4716 132.502 26.7749C132.144 27.0781 131.873 27.4908 131.689 28.0128C131.51 28.5348 131.42 29.1289 131.42 29.7951C131.42 30.4613 131.51 31.0554 131.689 31.5774C131.873 32.0994 132.144 32.5121 132.502 32.8153C132.864 33.1136 133.312 33.2628 133.844 33.2628ZM144.709 28.8778V35.5H141.532V24.0455H144.56V26.0664H144.694C144.948 25.4002 145.373 24.8732 145.97 24.4854C146.566 24.0927 147.29 23.8963 148.14 23.8963C148.935 23.8963 149.629 24.0703 150.22 24.4183C150.812 24.7663 151.272 25.2635 151.6 25.9098C151.928 26.5511 152.092 27.3168 152.092 28.2067V35.5H148.915V28.7734C148.92 28.0724 148.741 27.5256 148.378 27.1328C148.015 26.7351 147.516 26.5362 146.879 26.5362C146.452 26.5362 146.074 26.6282 145.746 26.8121C145.423 26.9961 145.169 27.2646 144.985 27.6175C144.806 27.9656 144.714 28.3857 144.709 28.8778ZM160.689 24.0455V26.4318H153.79V24.0455H160.689ZM155.357 21.3011H158.533V31.9801C158.533 32.2734 158.578 32.5021 158.668 32.6662C158.757 32.8253 158.881 32.9371 159.04 33.0018C159.205 33.0664 159.393 33.0987 159.607 33.0987C159.756 33.0987 159.906 33.0863 160.055 33.0614C160.204 33.0316 160.318 33.0092 160.398 32.9943L160.897 35.3583C160.738 35.408 160.515 35.4652 160.226 35.5298C159.938 35.5994 159.587 35.6417 159.175 35.6566C158.409 35.6864 157.738 35.5845 157.161 35.3509C156.589 35.1172 156.145 34.7543 155.826 34.2621C155.508 33.7699 155.352 33.1484 155.357 32.3977V21.3011ZM166.024 35.7163C165.294 35.7163 164.642 35.5895 164.07 35.3359C163.499 35.0774 163.046 34.6971 162.713 34.195C162.385 33.6879 162.221 33.0565 162.221 32.3008C162.221 31.6644 162.338 31.13 162.572 30.6974C162.805 30.2649 163.123 29.9169 163.526 29.6534C163.929 29.3899 164.386 29.1911 164.898 29.0568C165.415 28.9226 165.957 28.8281 166.524 28.7734C167.19 28.7038 167.727 28.6392 168.135 28.5795C168.542 28.5149 168.838 28.4205 169.022 28.2962C169.206 28.1719 169.298 27.9879 169.298 27.7443V27.6996C169.298 27.2273 169.149 26.8619 168.851 26.6033C168.557 26.3448 168.14 26.2156 167.598 26.2156C167.026 26.2156 166.571 26.3423 166.233 26.5959C165.895 26.8445 165.671 27.1577 165.562 27.5355L162.624 27.2969C162.773 26.6009 163.066 25.9993 163.504 25.4922C163.941 24.9801 164.506 24.5874 165.197 24.3139C165.893 24.0355 166.698 23.8963 167.613 23.8963C168.249 23.8963 168.858 23.9709 169.44 24.12C170.026 24.2692 170.546 24.5004 170.998 24.8136C171.456 25.1268 171.816 25.5295 172.08 26.0217C172.343 26.5089 172.475 27.093 172.475 27.7741V35.5H169.462V33.9116H169.373C169.189 34.2695 168.943 34.5852 168.634 34.8587C168.326 35.1271 167.956 35.3384 167.523 35.4925C167.091 35.6417 166.591 35.7163 166.024 35.7163ZM166.934 33.5238C167.401 33.5238 167.814 33.4318 168.172 33.2479C168.53 33.0589 168.811 32.8054 169.015 32.4872C169.219 32.169 169.32 31.8086 169.32 31.4059V30.1903C169.221 30.255 169.084 30.3146 168.91 30.3693C168.741 30.419 168.55 30.4663 168.336 30.511C168.122 30.5508 167.909 30.5881 167.695 30.6229C167.481 30.6527 167.287 30.68 167.113 30.7049C166.74 30.7596 166.415 30.8466 166.136 30.9659C165.858 31.0852 165.642 31.2468 165.487 31.4506C165.333 31.6495 165.256 31.8981 165.256 32.1964C165.256 32.6289 165.413 32.9595 165.726 33.1882C166.044 33.4119 166.447 33.5238 166.934 33.5238ZM180.115 35.7237C178.942 35.7237 177.933 35.4751 177.087 34.978C176.247 34.4759 175.601 33.7798 175.148 32.8899C174.701 32 174.477 30.9759 174.477 29.8175C174.477 28.6442 174.703 27.6151 175.156 26.7301C175.613 25.8402 176.262 25.1467 177.102 24.6495C177.942 24.1474 178.942 23.8963 180.1 23.8963C181.099 23.8963 181.974 24.0778 182.725 24.4407C183.476 24.8036 184.07 25.3132 184.507 25.9695C184.945 26.6257 185.186 27.3963 185.231 28.2812H182.233C182.148 27.7095 181.925 27.2496 181.562 26.9016C181.204 26.5487 180.734 26.3722 180.152 26.3722C179.66 26.3722 179.23 26.5064 178.862 26.7749C178.499 27.0384 178.216 27.4237 178.012 27.9308C177.808 28.4379 177.706 29.0518 177.706 29.7727C177.706 30.5036 177.806 31.125 178.005 31.6371C178.208 32.1491 178.494 32.5394 178.862 32.8079C179.23 33.0763 179.66 33.2106 180.152 33.2106C180.515 33.2106 180.841 33.136 181.129 32.9869C181.423 32.8377 181.664 32.6214 181.853 32.3381C182.047 32.0497 182.173 31.7042 182.233 31.3015H185.231C185.181 32.1765 184.942 32.9471 184.515 33.6133C184.092 34.2745 183.508 34.7915 182.762 35.1644C182.017 35.5373 181.134 35.7237 180.115 35.7237ZM193.358 24.0455V26.4318H186.459V24.0455H193.358ZM188.025 21.3011H191.202V31.9801C191.202 32.2734 191.247 32.5021 191.337 32.6662C191.426 32.8253 191.55 32.9371 191.709 33.0018C191.873 33.0664 192.062 33.0987 192.276 33.0987C192.425 33.0987 192.574 33.0863 192.724 33.0614C192.873 33.0316 192.987 33.0092 193.067 32.9943L193.566 35.3583C193.407 35.408 193.184 35.4652 192.895 35.5298C192.607 35.5994 192.256 35.6417 191.844 35.6566C191.078 35.6864 190.407 35.5845 189.83 35.3509C189.258 35.1172 188.813 34.7543 188.495 34.2621C188.177 33.7699 188.021 33.1484 188.025 32.3977V21.3011Z" fill="white"/>
<mask id="mask0_128_3370" style="mask-type:alpha" maskUnits="userSpaceOnUse" x="211" y="12" width="33" height="32">
<rect x="211.068" y="12" width="32" height="32" fill="#D9D9D9"/>
</mask>
<g mask="url(#mask0_128_3370)">
<path d="M236.397 30.6667C236.082 30.6667 235.818 30.5602 235.607 30.3473C235.396 30.1343 235.29 29.8704 235.29 29.5556V26.4445H232.179C231.864 26.4445 231.6 26.3376 231.387 26.1239C231.175 25.9102 231.068 25.6454 231.068 25.3295C231.068 25.0136 231.175 24.7501 231.387 24.5389C231.6 24.3278 231.864 24.2223 232.179 24.2223H235.29V21.1111C235.29 20.7963 235.397 20.5325 235.611 20.3195C235.825 20.1065 236.089 20 236.405 20C236.721 20 236.985 20.1065 237.196 20.3195C237.407 20.5325 237.512 20.7963 237.512 21.1111V24.2223H240.624C240.938 24.2223 241.202 24.3291 241.415 24.5428C241.628 24.7566 241.735 25.0214 241.735 25.3373C241.735 25.6532 241.628 25.9167 241.415 26.1278C241.202 26.3389 240.938 26.4445 240.624 26.4445H237.512V29.5556C237.512 29.8704 237.406 30.1343 237.192 30.3473C236.978 30.5602 236.713 30.6667 236.397 30.6667ZM223.068 27.9778C221.601 27.9778 220.383 27.4926 219.412 26.5223C218.442 25.5519 217.957 24.3334 217.957 22.8667C217.957 21.4 218.442 20.1815 219.412 19.2112C220.383 18.2408 221.601 17.7556 223.068 17.7556C224.535 17.7556 225.753 18.2408 226.724 19.2112C227.694 20.1815 228.179 21.4 228.179 22.8667C228.179 24.3334 227.694 25.5519 226.724 26.5223C225.753 27.4926 224.535 27.9778 223.068 27.9778ZM213.512 38.6667C213.198 38.6667 212.934 38.5602 212.721 38.3473C212.508 38.1343 212.401 37.8704 212.401 37.5556V35.3334C212.401 34.563 212.6 33.8612 212.996 33.2279C213.392 32.5945 213.935 32.1186 214.624 31.8C216.194 31.0815 217.648 30.5649 218.987 30.25C220.325 29.9352 221.684 29.7779 223.064 29.7779C224.445 29.7779 225.805 29.9352 227.146 30.25C228.487 30.5649 229.935 31.0815 231.49 31.8C232.179 32.1334 232.725 32.613 233.129 33.2389C233.533 33.8649 233.735 34.563 233.735 35.3334V37.5556C233.735 37.8704 233.628 38.1343 233.415 38.3473C233.202 38.5602 232.938 38.6667 232.624 38.6667H213.512ZM214.624 36.4445H231.513V35.3334C231.513 35.0149 231.433 34.7149 231.274 34.4334C231.114 34.1519 230.875 33.9408 230.557 33.8C229.12 33.0963 227.831 32.6204 226.69 32.3723C225.55 32.1241 224.342 32 223.068 32C221.794 32 220.587 32.1278 219.446 32.3834C218.305 32.6389 217.009 33.1112 215.557 33.8C215.268 33.9408 215.04 34.1519 214.874 34.4334C214.707 34.7149 214.624 35.0149 214.624 35.3334V36.4445ZM223.068 25.7556C223.89 25.7556 224.577 25.4797 225.129 24.9278C225.681 24.376 225.957 23.6889 225.957 22.8667C225.957 22.0445 225.681 21.3575 225.129 20.8056C224.577 20.2537 223.89 19.9778 223.068 19.9778C222.246 19.9778 221.559 20.2537 221.007 20.8056C220.455 21.3575 220.179 22.0445 220.179 22.8667C220.179 23.6889 220.455 24.376 221.007 24.9278C221.559 25.4797 222.246 25.7556 223.068 25.7556Z" fill="white"/>
</g>
</g>
<defs>
<filter id="filter0_d_128_3370" x="0.0683594" y="0" width="263" height="64" filterUnits="userSpaceOnUse" color-interpolation-filters="sRGB">
<feFlood flood-opacity="0" result="BackgroundImageFix"/>
<feColorMatrix in="SourceAlpha" type="matrix" values="0 0 0 0 0 0 0 0 0 0 0 0 0 0 0 0 0 0 127 0" result="hardAlpha"/>
<feOffset dy="4"/>
<feGaussianBlur stdDeviation="2"/>
<feComposite in2="hardAlpha" operator="out"/>
<feColorMatrix type="matrix" values="0 0 0 0 0 0 0 0 0 0 0 0 0 0 0 0 0 0 0.25 0"/>
<feBlend mode="normal" in2="BackgroundImageFix" result="effect1_dropShadow_128_3370"/>
<feBlend mode="normal" in="SourceGraphic" in2="effect1_dropShadow_128_3370" result="shape"/>
</filter>
</defs>
</svg>
