<svg width="192" height="64" viewBox="0 0 192 64" fill="none" xmlns="http://www.w3.org/2000/svg">
<g filter="url(#filter0_d_70_812)">
<rect x="4.06836" width="183" height="56" rx="10" fill="#29ABE2"/>
<path d="M34.8713 26.0742H31.6049C31.5453 25.6516 31.4235 25.2763 31.2395 24.9482C31.0556 24.6151 30.8194 24.3317 30.5311 24.098C30.2427 23.8643 29.9096 23.6854 29.5318 23.5611C29.1589 23.4368 28.7537 23.3746 28.3162 23.3746C27.5257 23.3746 26.8372 23.571 26.2505 23.9638C25.6639 24.3516 25.209 24.9183 24.8858 25.6641C24.5627 26.4048 24.4011 27.3047 24.4011 28.3636C24.4011 29.4524 24.5627 30.3672 24.8858 31.108C25.214 31.8487 25.6713 32.408 26.258 32.7859C26.8446 33.1637 27.5233 33.3526 28.2939 33.3526C28.7264 33.3526 29.1266 33.2955 29.4945 33.1811C29.8674 33.0668 30.198 32.9002 30.4863 32.6815C30.7747 32.4577 31.0133 32.1868 31.2022 31.8686C31.3961 31.5504 31.5304 31.1875 31.6049 30.7798L34.8713 30.7947C34.7868 31.4957 34.5755 32.1719 34.2374 32.8232C33.9043 33.4695 33.4544 34.0487 32.8876 34.5607C32.3258 35.0678 31.6547 35.4705 30.8741 35.7688C30.0985 36.0621 29.2211 36.2088 28.2417 36.2088C26.8794 36.2088 25.6614 35.9006 24.5875 35.2841C23.5186 34.6676 22.6735 33.7752 22.052 32.6069C21.4355 31.4386 21.1273 30.0241 21.1273 28.3636C21.1273 26.6982 21.4405 25.2812 22.0669 24.1129C22.6934 22.9446 23.5435 22.0547 24.6174 21.4432C25.6912 20.8267 26.8993 20.5185 28.2417 20.5185C29.1266 20.5185 29.9469 20.6428 30.7026 20.8913C31.4632 21.1399 32.1369 21.5028 32.7235 21.9801C33.3102 22.4524 33.7875 23.0316 34.1554 23.7177C34.5282 24.4038 34.7669 25.1893 34.8713 26.0742ZM37.1271 36V24.5455H40.207V26.544H40.3263C40.5352 25.8331 40.8857 25.2962 41.3778 24.9332C41.87 24.5653 42.4368 24.3814 43.0781 24.3814C43.2372 24.3814 43.4087 24.3913 43.5927 24.4112C43.7766 24.4311 43.9382 24.4585 44.0774 24.4933V27.3121C43.9283 27.2674 43.7219 27.2276 43.4585 27.1928C43.195 27.158 42.9538 27.1406 42.7351 27.1406C42.2678 27.1406 41.8501 27.2425 41.4822 27.4464C41.1193 27.6452 40.831 27.9237 40.6172 28.2816C40.4084 28.6396 40.304 29.0522 40.304 29.5195V36H37.1271ZM50.4069 36.2237C49.2286 36.2237 48.2144 35.9851 47.3643 35.5078C46.5191 35.0256 45.8678 34.3445 45.4104 33.4645C44.953 32.5795 44.7243 31.533 44.7243 30.3249C44.7243 29.1467 44.953 28.1126 45.4104 27.2227C45.8678 26.3327 46.5116 25.6392 47.3419 25.142C48.1771 24.6449 49.1565 24.3963 50.2801 24.3963C51.0358 24.3963 51.7393 24.5181 52.3905 24.7617C53.0468 25.0004 53.6185 25.3608 54.1057 25.843C54.5979 26.3253 54.9807 26.9318 55.2542 27.6626C55.5276 28.3885 55.6643 29.2386 55.6643 30.2131V31.0856H45.9921V29.1168H52.6739C52.6739 28.6594 52.5745 28.2543 52.3756 27.9013C52.1768 27.5483 51.9008 27.2724 51.5479 27.0735C51.1998 26.8697 50.7947 26.7678 50.3323 26.7678C49.8501 26.7678 49.4225 26.8796 49.0496 27.1033C48.6817 27.3221 48.3934 27.6179 48.1846 27.9908C47.9758 28.3587 47.8689 28.7688 47.8639 29.2212V31.093C47.8639 31.6598 47.9683 32.1495 48.1771 32.5621C48.3909 32.9748 48.6917 33.293 49.0795 33.5167C49.4672 33.7404 49.9271 33.8523 50.4591 33.8523C50.8121 33.8523 51.1352 33.8026 51.4285 33.7031C51.7219 33.6037 51.9729 33.4545 52.1817 33.2557C52.3905 33.0568 52.5496 32.8132 52.659 32.5249L55.5972 32.7188C55.4481 33.4247 55.1423 34.0412 54.68 34.5682C54.2226 35.0902 53.6309 35.4979 52.9051 35.7912C52.1842 36.0795 51.3515 36.2237 50.4069 36.2237ZM61.0038 36.2163C60.273 36.2163 59.6217 36.0895 59.05 35.8359C58.4782 35.5774 58.0258 35.1971 57.6927 34.695C57.3646 34.1879 57.2006 33.5565 57.2006 32.8008C57.2006 32.1644 57.3174 31.63 57.551 31.1974C57.7847 30.7649 58.1029 30.4169 58.5056 30.1534C58.9083 29.8899 59.3657 29.6911 59.8778 29.5568C60.3948 29.4226 60.9367 29.3281 61.5035 29.2734C62.1697 29.2038 62.7066 29.1392 63.1143 29.0795C63.5219 29.0149 63.8177 28.9205 64.0017 28.7962C64.1856 28.6719 64.2776 28.4879 64.2776 28.2443V28.1996C64.2776 27.7273 64.1285 27.3619 63.8302 27.1033C63.5368 26.8448 63.1192 26.7156 62.5773 26.7156C62.0056 26.7156 61.5507 26.8423 61.2126 27.0959C60.8746 27.3445 60.6508 27.6577 60.5415 28.0355L57.6032 27.7969C57.7524 27.1009 58.0457 26.4993 58.4832 25.9922C58.9207 25.4801 59.485 25.0874 60.176 24.8139C60.8721 24.5355 61.6775 24.3963 62.5922 24.3963C63.2286 24.3963 63.8376 24.4709 64.4193 24.62C65.0059 24.7692 65.5255 25.0004 65.9779 25.3136C66.4353 25.6268 66.7957 26.0295 67.0592 26.5217C67.3227 27.0089 67.4545 27.593 67.4545 28.2741V36H64.4417V34.4116H64.3522C64.1682 34.7695 63.9221 35.0852 63.6139 35.3587C63.3057 35.6271 62.9353 35.8384 62.5028 35.9925C62.0702 36.1417 61.5706 36.2163 61.0038 36.2163ZM61.9136 34.0238C62.3809 34.0238 62.7936 33.9318 63.1515 33.7479C63.5095 33.5589 63.7904 33.3054 63.9942 32.9872C64.1981 32.669 64.3 32.3086 64.3 31.9059V30.6903C64.2006 30.755 64.0638 30.8146 63.8898 30.8693C63.7208 30.919 63.5294 30.9663 63.3156 31.011C63.1018 31.0508 62.8881 31.0881 62.6743 31.1229C62.4605 31.1527 62.2666 31.18 62.0926 31.2049C61.7197 31.2596 61.3941 31.3466 61.1157 31.4659C60.8373 31.5852 60.621 31.7468 60.4669 31.9506C60.3128 32.1495 60.2357 32.3981 60.2357 32.6964C60.2357 33.1289 60.3923 33.4595 60.7055 33.6882C61.0237 33.9119 61.4264 34.0238 61.9136 34.0238ZM76.0118 24.5455V26.9318H69.1137V24.5455H76.0118ZM70.6798 21.8011H73.8566V32.4801C73.8566 32.7734 73.9014 33.0021 73.9909 33.1662C74.0803 33.3253 74.2046 33.4371 74.3637 33.5018C74.5278 33.5664 74.7167 33.5987 74.9305 33.5987C75.0796 33.5987 75.2288 33.5863 75.3779 33.5614C75.5271 33.5316 75.6414 33.5092 75.721 33.4943L76.2206 35.8583C76.0615 35.908 75.8378 35.9652 75.5494 36.0298C75.2611 36.0994 74.9106 36.1417 74.498 36.1566C73.7323 36.1864 73.0612 36.0845 72.4845 35.8509C71.9127 35.6172 71.4678 35.2543 71.1496 34.7621C70.8314 34.2699 70.6748 33.6484 70.6798 32.8977V21.8011ZM83.1784 36.2237C82.0001 36.2237 80.9859 35.9851 80.1357 35.5078C79.2906 35.0256 78.6393 34.3445 78.1819 33.4645C77.7245 32.5795 77.4958 31.533 77.4958 30.3249C77.4958 29.1467 77.7245 28.1126 78.1819 27.2227C78.6393 26.3327 79.2831 25.6392 80.1134 25.142C80.9486 24.6449 81.928 24.3963 83.0516 24.3963C83.8073 24.3963 84.5107 24.5181 85.162 24.7617C85.8183 25.0004 86.39 25.3608 86.8772 25.843C87.3694 26.3253 87.7522 26.9318 88.0257 27.6626C88.2991 28.3885 88.4358 29.2386 88.4358 30.2131V31.0856H78.7636V29.1168H85.4454C85.4454 28.6594 85.346 28.2543 85.1471 27.9013C84.9482 27.5483 84.6723 27.2724 84.3193 27.0735C83.9713 26.8697 83.5661 26.7678 83.1038 26.7678C82.6215 26.7678 82.194 26.8796 81.8211 27.1033C81.4532 27.3221 81.1649 27.6179 80.9561 27.9908C80.7472 28.3587 80.6404 28.7688 80.6354 29.2212V31.093C80.6354 31.6598 80.7398 32.1495 80.9486 32.5621C81.1624 32.9748 81.4632 33.293 81.8509 33.5167C82.2387 33.7404 82.6986 33.8523 83.2306 33.8523C83.5835 33.8523 83.9067 33.8026 84.2 33.7031C84.4933 33.6037 84.7444 33.4545 84.9532 33.2557C85.162 33.0568 85.3211 32.8132 85.4305 32.5249L88.3687 32.7188C88.2195 33.4247 87.9138 34.0412 87.4514 34.5682C86.9941 35.0902 86.4024 35.4979 85.6766 35.7912C84.9557 36.0795 84.123 36.2237 83.1784 36.2237ZM94.8473 23.3896V20.7273H107.391V23.3896H102.715V36H99.5231V23.3896H94.8473ZM111.104 36.2163C110.374 36.2163 109.722 36.0895 109.151 35.8359C108.579 35.5774 108.126 35.1971 107.793 34.695C107.465 34.1879 107.301 33.5565 107.301 32.8008C107.301 32.1644 107.418 31.63 107.652 31.1974C107.885 30.7649 108.203 30.4169 108.606 30.1534C109.009 29.8899 109.466 29.6911 109.978 29.5568C110.495 29.4226 111.037 29.3281 111.604 29.2734C112.27 29.2038 112.807 29.1392 113.215 29.0795C113.623 29.0149 113.918 28.9205 114.102 28.7962C114.286 28.6719 114.378 28.4879 114.378 28.2443V28.1996C114.378 27.7273 114.229 27.3619 113.931 27.1033C113.637 26.8448 113.22 26.7156 112.678 26.7156C112.106 26.7156 111.651 26.8423 111.313 27.0959C110.975 27.3445 110.751 27.6577 110.642 28.0355L107.704 27.7969C107.853 27.1009 108.146 26.4993 108.584 25.9922C109.021 25.4801 109.586 25.0874 110.277 24.8139C110.973 24.5355 111.778 24.3963 112.693 24.3963C113.329 24.3963 113.938 24.4709 114.52 24.62C115.107 24.7692 115.626 25.0004 116.078 25.3136C116.536 25.6268 116.896 26.0295 117.16 26.5217C117.423 27.0089 117.555 27.593 117.555 28.2741V36H114.542V34.4116H114.453C114.269 34.7695 114.023 35.0852 113.714 35.3587C113.406 35.6271 113.036 35.8384 112.603 35.9925C112.171 36.1417 111.671 36.2163 111.104 36.2163ZM112.014 34.0238C112.482 34.0238 112.894 33.9318 113.252 33.7479C113.61 33.5589 113.891 33.3054 114.095 32.9872C114.299 32.669 114.401 32.3086 114.401 31.9059V30.6903C114.301 30.755 114.164 30.8146 113.99 30.8693C113.821 30.919 113.63 30.9663 113.416 31.011C113.202 31.0508 112.989 31.0881 112.775 31.1229C112.561 31.1527 112.367 31.18 112.193 31.2049C111.82 31.2596 111.495 31.3466 111.216 31.4659C110.938 31.5852 110.722 31.7468 110.567 31.9506C110.413 32.1495 110.336 32.3981 110.336 32.6964C110.336 33.1289 110.493 33.4595 110.806 33.6882C111.124 33.9119 111.527 34.0238 112.014 34.0238ZM129.55 27.8118L126.642 27.9908C126.592 27.7422 126.485 27.5185 126.321 27.3196C126.157 27.1158 125.941 26.9542 125.672 26.8349C125.409 26.7106 125.093 26.6484 124.725 26.6484C124.233 26.6484 123.818 26.7528 123.48 26.9616C123.142 27.1655 122.973 27.4389 122.973 27.782C122.973 28.0554 123.082 28.2866 123.301 28.4755C123.52 28.6644 123.895 28.8161 124.427 28.9304L126.5 29.348C127.614 29.5767 128.444 29.9446 128.991 30.4517C129.538 30.9588 129.811 31.625 129.811 32.4503C129.811 33.201 129.59 33.8597 129.148 34.4265C128.71 34.9933 128.108 35.4357 127.343 35.7539C126.582 36.0671 125.705 36.2237 124.71 36.2237C123.194 36.2237 121.986 35.908 121.086 35.2766C120.191 34.6403 119.667 33.7752 119.513 32.6815L122.637 32.5174C122.732 32.9798 122.96 33.3327 123.323 33.5763C123.686 33.815 124.151 33.9343 124.718 33.9343C125.275 33.9343 125.722 33.8274 126.06 33.6136C126.403 33.3949 126.577 33.114 126.582 32.771C126.577 32.4826 126.455 32.2464 126.217 32.0625C125.978 31.8736 125.61 31.7294 125.113 31.63L123.129 31.2347C122.011 31.011 121.178 30.6232 120.631 30.0714C120.089 29.5195 119.818 28.8161 119.818 27.9609C119.818 27.2251 120.017 26.5913 120.415 26.0593C120.818 25.5273 121.382 25.1172 122.108 24.8288C122.839 24.5405 123.694 24.3963 124.673 24.3963C126.12 24.3963 127.258 24.7021 128.089 25.3136C128.924 25.9251 129.411 26.7578 129.55 27.8118ZM134.69 32.7038L134.698 28.8931H135.16L138.829 24.5455H142.476L137.546 30.3026H136.793L134.69 32.7038ZM131.812 36V20.7273H134.989V36H131.812ZM138.971 36L135.6 31.011L137.718 28.7663L142.692 36H138.971Z" fill="white"/>
<mask id="mask0_70_812" style="mask-type:alpha" maskUnits="userSpaceOnUse" x="147" y="16" width="25" height="24">
<rect x="147.068" y="16" width="24" height="24" fill="#D9D9D9"/>
</mask>
<g mask="url(#mask0_70_812)">
<path d="M156.619 31.15L165.094 22.675C165.294 22.475 165.532 22.375 165.807 22.375C166.082 22.375 166.319 22.475 166.519 22.675C166.719 22.875 166.819 23.1125 166.819 23.3875C166.819 23.6625 166.719 23.9 166.519 24.1L157.319 33.3C157.119 33.5 156.886 33.6 156.619 33.6C156.352 33.6 156.119 33.5 155.919 33.3L151.619 29C151.419 28.8 151.323 28.5625 151.332 28.2875C151.34 28.0125 151.444 27.775 151.644 27.575C151.844 27.375 152.082 27.275 152.357 27.275C152.632 27.275 152.869 27.375 153.069 27.575L156.619 31.15Z" fill="white"/>
</g>
</g>
<defs>
<filter id="filter0_d_70_812" x="0.0683594" y="0" width="191" height="64" filterUnits="userSpaceOnUse" color-interpolation-filters="sRGB">
<feFlood flood-opacity="0" result="BackgroundImageFix"/>
<feColorMatrix in="SourceAlpha" type="matrix" values="0 0 0 0 0 0 0 0 0 0 0 0 0 0 0 0 0 0 127 0" result="hardAlpha"/>
<feOffset dy="4"/>
<feGaussianBlur stdDeviation="2"/>
<feComposite in2="hardAlpha" operator="out"/>
<feColorMatrix type="matrix" values="0 0 0 0 0 0 0 0 0 0 0 0 0 0 0 0 0 0 0.25 0"/>
<feBlend mode="normal" in2="BackgroundImageFix" result="effect1_dropShadow_70_812"/>
<feBlend mode="normal" in="SourceGraphic" in2="effect1_dropShadow_70_812" result="shape"/>
</filter>
</defs>
</svg>
